<svg width="40" height="41" viewBox="0 0 40 41" fill="none" xmlns="http://www.w3.org/2000/svg">
<g id="adb">
<mask id="mask0_1190_1785" style="mask-type:alpha" maskUnits="userSpaceOnUse" x="0" y="0" width="40" height="41">
<rect id="Bounding box" y="0.5" width="40" height="40" fill="#D9D9D9"/>
</mask>
<g mask="url(#mask0_1190_1785)">
<path id="adb_2" d="M8.33398 18.8333V17.1667C8.33398 15.1667 8.78537 13.3403 9.68815 11.6875C10.5909 10.0347 11.8062 8.68056 13.334 7.625L10.209 4.5L11.6673 3L15.209 6.54167C15.9312 6.20833 16.702 5.95139 17.5215 5.77083C18.3409 5.59028 19.1673 5.5 20.0007 5.5C20.834 5.5 21.6604 5.59028 22.4798 5.77083C23.2993 5.95139 24.0701 6.20833 24.7923 6.54167L28.334 3L29.7923 4.5L26.6673 7.625C28.1951 8.68056 29.4104 10.0347 30.3132 11.6875C31.2159 13.3403 31.6673 15.1667 31.6673 17.1667V18.8333H8.33398ZM25.0007 15.5C25.4729 15.5 25.8687 15.3403 26.1882 15.0208C26.5076 14.7014 26.6673 14.3056 26.6673 13.8333C26.6673 13.3611 26.5076 12.9653 26.1882 12.6458C25.8687 12.3264 25.4729 12.1667 25.0007 12.1667C24.5284 12.1667 24.1326 12.3264 23.8132 12.6458C23.4937 12.9653 23.334 13.3611 23.334 13.8333C23.334 14.3056 23.4937 14.7014 23.8132 15.0208C24.1326 15.3403 24.5284 15.5 25.0007 15.5ZM15.0007 15.5C15.4729 15.5 15.8687 15.3403 16.1882 15.0208C16.5076 14.7014 16.6673 14.3056 16.6673 13.8333C16.6673 13.3611 16.5076 12.9653 16.1882 12.6458C15.8687 12.3264 15.4729 12.1667 15.0007 12.1667C14.5284 12.1667 14.1326 12.3264 13.8132 12.6458C13.4937 12.9653 13.334 13.3611 13.334 13.8333C13.334 14.3056 13.4937 14.7014 13.8132 15.0208C14.1326 15.3403 14.5284 15.5 15.0007 15.5ZM20.0007 38.8333C16.7507 38.8333 13.9937 37.7014 11.7298 35.4375C9.46593 33.1736 8.33398 30.4167 8.33398 27.1667V20.5H31.6673V27.1667C31.6673 30.4167 30.5354 33.1736 28.2715 35.4375C26.0076 37.7014 23.2507 38.8333 20.0007 38.8333Z" fill="white"/>
</g>
</g>
</svg>
