<svg width="40" height="40" viewBox="0 0 40 40" fill="none" xmlns="http://www.w3.org/2000/svg">
<g id="cards">
<mask id="mask0_1190_1776" style="mask-type:alpha" maskUnits="userSpaceOnUse" x="0" y="0" width="40" height="40">
<rect id="Bounding box" width="40" height="40" fill="#D9D9D9"/>
</mask>
<g mask="url(#mask0_1190_1776)">
<path id="cards_2" d="M10 19.1667V10H19.1667V19.1667H10ZM10 30V20.8333H19.1667V30H10ZM20.8333 19.1667V10H30V19.1667H20.8333ZM20.8333 30V20.8333H30V30H20.8333ZM13.3333 15.8333H15.8333V13.3333H13.3333V15.8333ZM24.1667 15.8333H26.6667V13.3333H24.1667V15.8333ZM13.3333 26.6667H15.8333V24.1667H13.3333V26.6667ZM24.1667 26.6667H26.6667V24.1667H24.1667V26.6667ZM8.33333 35C7.41667 35 6.63194 34.6736 5.97917 34.0208C5.32639 33.3681 5 32.5833 5 31.6667V8.33333C5 7.41667 5.32639 6.63194 5.97917 5.97917C6.63194 5.32639 7.41667 5 8.33333 5H31.6667C32.5833 5 33.3681 5.32639 34.0208 5.97917C34.6736 6.63194 35 7.41667 35 8.33333V31.6667C35 32.5833 34.6736 33.3681 34.0208 34.0208C33.3681 34.6736 32.5833 35 31.6667 35H8.33333ZM8.33333 31.6667H31.6667V8.33333H8.33333V31.6667Z" fill="#F5F5F5"/>
</g>
</g>
</svg>
