<svg width="40" height="41" viewBox="0 0 40 41" fill="none" xmlns="http://www.w3.org/2000/svg">
<g id="nutrition">
<mask id="mask0_1250_4373" style="mask-type:alpha" maskUnits="userSpaceOnUse" x="0" y="0" width="40" height="41">
<rect id="Bounding box" y="0.5" width="40" height="40" fill="#D9D9D9"/>
</mask>
<g mask="url(#mask0_1250_4373)">
<path id="nutrition_2" d="M19.9997 35.5015C16.7497 35.5015 13.9927 34.3696 11.7288 32.1057C9.46495 29.8418 8.33301 27.0849 8.33301 23.8349C8.33301 21.2237 9.10384 18.8835 10.6455 16.814C12.1872 14.7446 14.208 13.3488 16.708 12.6265C16.1525 12.4876 15.6108 12.2862 15.083 12.0224C14.5552 11.7585 14.083 11.4182 13.6663 11.0015C12.7497 10.0849 12.1594 8.99458 11.8955 7.73069C11.6316 6.4668 11.5691 5.18208 11.708 3.87653C13.0136 3.73764 14.2983 3.80014 15.5622 4.06403C16.8261 4.32792 17.9163 4.91819 18.833 5.83486C19.4719 6.47375 19.9372 7.19597 20.2288 8.00153C20.5205 8.80708 20.708 9.6543 20.7913 10.5432C21.1525 9.68208 21.59 8.86958 22.1038 8.10569C22.6177 7.3418 23.1941 6.64042 23.833 6.00153C24.1386 5.69597 24.5275 5.54319 24.9997 5.54319C25.4719 5.54319 25.8608 5.69597 26.1663 6.00153C26.4719 6.30708 26.6247 6.69597 26.6247 7.16819C26.6247 7.64042 26.4719 8.0293 26.1663 8.33486C25.5552 8.94597 25.0136 9.61958 24.5413 10.3557C24.0691 11.0918 23.7219 11.8765 23.4997 12.7099C25.9441 13.4876 27.9163 14.8974 29.4163 16.939C30.9163 18.9807 31.6663 21.2793 31.6663 23.8349C31.6663 27.0849 30.5344 29.8418 28.2705 32.1057C26.0066 34.3696 23.2497 35.5015 19.9997 35.5015ZM19.9997 32.1682C22.3052 32.1682 24.2705 31.3557 25.8955 29.7307C27.5205 28.1057 28.333 26.1404 28.333 23.8349C28.333 21.5293 27.5205 19.564 25.8955 17.939C24.2705 16.314 22.3052 15.5015 19.9997 15.5015C17.6941 15.5015 15.7288 16.314 14.1038 17.939C12.4788 19.564 11.6663 21.5293 11.6663 23.8349C11.6663 26.1404 12.4788 28.1057 14.1038 29.7307C15.7288 31.3557 17.6941 32.1682 19.9997 32.1682Z" fill="white"/>
</g>
</g>
</svg>
